<svg width="59" height="58" viewBox="0 0 59 58" fill="none" xmlns="http://www.w3.org/2000/svg">
<path d="M29.5 0C13.275 0 0 13.05 0 29C0 44.95 13.275 58 29.5 58C45.725 58 59 44.95 59 29C59 13.05 45.725 0 29.5 0ZM17.405 39.875C14.16 39.875 11.505 37.265 11.505 34.075C11.505 30.885 14.16 28.275 17.405 28.275C20.65 28.275 23.305 30.885 23.305 34.075C23.305 37.265 20.65 39.875 17.405 39.875ZM42.0375 38.28C39.3825 39.875 35.8425 38.86 34.22 36.25L25.96 22.185C24.3375 19.575 25.37 16.095 28.025 14.5C30.68 12.905 34.22 13.92 35.8425 16.53L44.1025 30.595C45.725 33.35 44.6925 36.83 42.0375 38.28Z" fill="#232E35"/>
</svg>
